<svg xmlns="http://www.w3.org/2000/svg" viewBox="0 0 448 512"><path d="M448 80v352c0 26.5-21.5 48-48 48H48c-26.5 0-48-21.5-48-48V80c0-26.5 21.5-48 48-48h352c26.5 0 48 21.5 48 48zm-48 346V86a6 6 0 0 0-6-6H54a6 6 0 0 0-6 6v340a6 6 0 0 0 6 6h340a6 6 0 0 0 6-6zM224 118c23.2 0 42 18.8 42 42s-18.8 42-42 42-42-18.8-42-42 18.8-42 42-42zm56 254c0 6.6-5.4 12-12 12h-88c-6.6 0-12-5.4-12-12v-24c0-6.6 5.4-12 12-12h12v-64h-12c-6.6 0-12-5.4-12-12v-24c0-6.6 5.4-12 12-12h64c6.6 0 12 5.4 12 12v100h12c6.6 0 12 5.4 12 12v24z" fill="currentColor"/></svg>